<!DOCTYPE svg PUBLIC "-//W3C//DTD SVG 1.1//EN" "http://www.w3.org/Graphics/SVG/1.1/DTD/svg11.dtd">



        <svg height="127" width="127" xmlns="http://www.w3.org/2000/svg" class="icon" aria-hidden="true" focusable="false" viewBox="0 0 127 127">

            <path d="M62.7,62.7 S47,60 43.5,47 S42,26 50,18 S67,8 79,6 L79,6 79,6 S61,1 45,12.5 S33,40 34.5,45 S42,65 62.7,62.7" style="fill:none; stroke:black; stroke-width:2.5" />
            
            <path d="M62.7,62.7 S47,60 43.5,47 S42,26 50,18 S67,8 79,6 L79,6 79,6 S61,1 45,12.5 S33,40 34.5,45 S42,65 62.7,62.7" style="fill:none; stroke:black; stroke-width:2.5" transform="rotate(60)" transform-origin="62.7 62.7" />
            
            <path d="M62.7,62.7 S47,60 43.5,47 S42,26 50,18 S67,8 79,6 L79,6 79,6 S61,1 45,12.5 S33,40 34.5,45 S42,65 62.7,62.7" style="fill:none; stroke:black; stroke-width:2.5" transform="rotate(120)" transform-origin="62.7 62.7" />
            
            <path d="M62.7,62.7 S47,60 43.5,47 S42,26 50,18 S67,8 79,6 L79,6 79,6 S61,1 45,12.5 S33,40 34.5,45 S42,65 62.7,62.7" style="fill:none; stroke:black; stroke-width:2.5" transform="rotate(180)" transform-origin="62.7 62.7" />
            
            <path d="M62.7,62.7 S47,60 43.5,47 S42,26 50,18 S67,8 79,6 L79,6 79,6 S61,1 45,12.5 S33,40 34.5,45 S42,65 62.7,62.7" style="fill:none; stroke:black; stroke-width:2.5" transform="rotate(240)" transform-origin="62.7 62.7" />
            
            <path d="M62.7,62.7 S47,60 43.5,47 S42,26 50,18 S67,8 79,6 L79,6 79,6 S61,1 45,12.5 S33,40 34.5,45 S42,65 62.7,62.7" style="fill:none; stroke:black; stroke-width:2.5" transform="rotate(300)" transform-origin="62.7 62.7" />
            
            <circle r="4.3" cx="62.7" cy="62.7" fill="black"/>




            <path d="M62.7,62.7 S47,60 43.5,47 S42,26 50,18 S67,8 79,6 L79,6 79,6 S61,1 45,12.5 S33,40 34.5,45 S42,65 62.7,62.7" style="fill:white; stroke-width:0.5" />
            
            <path d="M62.7,62.7 S47,60 43.5,47 S42,26 50,18 S67,8 79,6 L79,6 79,6 S61,1 45,12.5 S33,40 34.5,45 S42,65 62.7,62.7" style="fill:white; stroke-width:0.5" transform="rotate(60)" transform-origin="62.7 62.7" />
            
            <path d="M62.7,62.7 S47,60 43.5,47 S42,26 50,18 S67,8 79,6 L79,6 79,6 S61,1 45,12.5 S33,40 34.5,45 S42,65 62.7,62.7" style="fill:white; stroke-width:0.5" transform="rotate(120)" transform-origin="62.7 62.7" />
            
            <path d="M62.7,62.7 S47,60 43.5,47 S42,26 50,18 S67,8 79,6 L79,6 79,6 S61,1 45,12.5 S33,40 34.5,45 S42,65 62.7,62.7" style="fill:white; stroke-width:0.5" transform="rotate(180)" transform-origin="62.7 62.7" />
            
            <path d="M62.7,62.7 S47,60 43.5,47 S42,26 50,18 S67,8 79,6 L79,6 79,6 S61,1 45,12.5 S33,40 34.5,45 S42,65 62.7,62.7" style="fill:white; stroke-width:0.5" transform="rotate(240)" transform-origin="62.7 62.7" />
            
            <path d="M62.7,62.7 S47,60 43.5,47 S42,26 50,18 S67,8 79,6 L79,6 79,6 S61,1 45,12.5 S33,40 34.5,45 S42,65 62.7,62.7" style="fill:white; stroke-width:0.5" transform="rotate(300)" transform-origin="62.7 62.7" />
            
            <circle r="2.3" cx="62.7" cy="62.7" fill="white"/>
            
            


        </svg>
        











