  <!DOCTYPE svg PUBLIC "-//W3C//DTD SVG 1.1//EN" "http://www.w3.org/Graphics/SVG/1.1/DTD/svg11.dtd">
<svg class="my-svg" height="127" width="127" xmlns="http://www.w3.org/2000/svg" aria-hidden="true" focusable="false" viewBox="0 0 127 127">
    <circle r="45" cx="63" cy="63" fill="#FF2106" />

    <polygon points="25,43 31,34 24.8,19 31.3,14.3 44,24.4 54.2,20.7 58,5 66,5 70.3,20.5 80.6,23.5 93,13.2 99.5,17.8 93.7,33 100.4,41.5 116.6,40.3 119.1,47.9 105.4,56.8 105.9,67.6 119.7,76.2 117.2,83.8 101,83 95,92 101.1,107 94.6,111.7 82,101.5 71.8,105.3 68,121 60,121 55.7,105.3 45.3,102.3 33,112.8 26.5,108.2 32.3,92.9 25.5,84.4 9.4,85.7 6.9,78 20.5,69.1 20,58.3 6.3,49.8 8.8,42.2" fill="#FF2106"/>
</svg>